<svg xmlns="http://www.w3.org/2000/svg" xmlns:xlink="http://www.w3.org/1999/xlink" viewBox="0 0 392.77 360.55"><defs><style>.cls-1{fill:#fac9d1;}.cls-2{fill:url(#Fading_Sky);}.cls-3{fill:#231f20;}.cls-4{opacity:0.71;}.cls-5{fill:#ec008c;stroke:#27aae1;stroke-miterlimit:10;}</style><linearGradient id="Fading_Sky" x1="40.09" y1="212.04" x2="433.69" y2="212.04" gradientTransform="matrix(0.86, -0.01, -0.01, 0.83, -5.26, 13.44)" gradientUnits="userSpaceOnUse"><stop offset="0" stop-color="#2484c6"/><stop offset="1" stop-color="#2484c6" stop-opacity="0"/></linearGradient></defs><g id="Layer_2" data-name="Layer 2"><g id="Layer_1-2" data-name="Layer 1"><polygon class="cls-1" points="69.06 360.31 95.72 229.93 0 137.47 136.21 118.59 200.06 0 257.58 118.71 392.77 137.87 292.11 230.13 311.8 360.55 192.08 298.86 69.06 360.31"/><polygon class="cls-2" points="85.86 340.08 109.42 229.79 27.61 152.15 144.76 135.52 200.23 35 249.07 135.02 365.15 150.54 278.19 228.98 294.47 339.09 191.88 287.56 85.86 340.08"/><path class="cls-3" d="M104.05,169.07h5.09c.67,6.52.29,13-.08,19.56h.16c5.64-6.52,13.59-13.05,16.67-19.6h5.73c-1.77,5-7.07,9.94-12,14.9,4.16,8.06,4.55,16.12,13.12,24.2h-5.53c-6.65-6.78-8.09-13.55-11.32-20.31q-3.93,4-7.21,7.94a87.55,87.55,0,0,0,.28,12.33h-4.93Z"/><path class="cls-3" d="M139.24,169l12.44,0c7.49,0,18,2.84,16.56,11-2.44,7.84-10.81,11.61-18.33,11.61h-7.19c-1.89,5.51-3,11,.58,16.55h-5C130.6,195.08,147,182,139.24,169Zm11.57,18.55c6,0,11-2.47,12.29-7.56.94-5.16-3.93-7-10.09-7h-6.86c1.34,4.84-.23,9.68-2,14.52Zm-1.35,2.68c1.64-.86,3.31-1.72,5-2.58,1.2,6.84,1.18,13.69,11,20.55l-5.65,0C151.53,202.18,150.53,196.2,149.46,190.22Z"/><path class="cls-3" d="M170.71,188.42c8.27-12.58,7.49-20.23,16.76-20.26,10.44,0,25.59,7.65,16.9,20.26-8.84,12.63-7.68,20.56-16.9,20.53C176.83,208.93,162.3,201,170.71,188.42Zm28.49,0c6.18-9.82-1.18-15.87-8.5-15.85-6.8,0-8.86,6.06-14.81,15.85s1,16.12,8.35,16.13C190.9,204.57,192.93,198.23,199.2,188.42Z"/><path class="cls-3" d="M209.08,168.84h5.16c7.75,7.15,4.6,14.32,2.6,21.48-1.25,4.25-2.1,8.49-.3,12.74h.25c-.13-4.25,2.52-8.51,5.4-12.74,5.15-7.17,10.82-14.34,6.88-21.52h4.52c7.17,7.18,5,14.35,4.2,21.54-.64,4.18-1,8.48.82,12.76h.25c0-4.28,2.07-8.55,4.3-12.76,4-7.19,8.13-14.38,5.21-21.57h4.79c4.91,13.22-14,26.43-9,39.62H238c-7.62-7.94-4.9-15.87-3.79-23.79a21,21,0,0,0-.16-9h-.23c-.33,3-1.77,5.91-3.64,9-5,7.92-12.81,15.84-8.18,23.75h-6C201.49,195.13,223.67,182,209.08,168.84Z"/><path class="cls-3" d="M259.89,168.72l22.38-.05c0,1.43,0,2.86,0,4.29l-16.46,0a39.74,39.74,0,0,1-.69,12.43h14.45c-.05,1.43-.1,2.85-.16,4.28H264.36c-.91,4.81-1.72,9.62-1.06,14.43l19.56,0v4.28l-23.62-.05C253.64,195.17,265.5,182,259.89,168.72Z"/><g class="cls-4"><path class="cls-5" d="M137.23,169h-5.77c-3.3,6.54-11.18,13.08-16.86,19.6h-.16c.4-6.52.81-13,.14-19.57l-5.14,0c.13,13-.15,26,0,39h4.88a87.54,87.54,0,0,1-.25-12.33c2.19-2.64,4.62-5.29,7.24-7.94,3.21,6.77,4.71,13.53,11.12,20.31l5.49,0C129.68,200,129.15,192,125,183.91,130,179,135.24,174,137.23,169Z"/><path class="cls-5" d="M173.6,180c1.56-8.18-8.63-11-16.2-11l-12.51,0c7.09,13-8.53,26.09-1.45,39.14h4.94c-3.3-5.52-2.13-11-.27-16.55h7c1,5.52,2.46,11,9.67,16.59h5.63c-7.74-5.73-9.07-11.46-10-17.18C166.26,189.7,171.69,186.07,173.6,180Zm-5.14,0c-1.34,5.09-6.26,7.56-12.27,7.56h-6.65c1.74-4.84,3.29-9.68,2.11-14.52h6.88C164.7,173,169.45,174.82,168.46,180Z"/><path class="cls-5" d="M193.35,168.16c-9.33,0-9.24,7.68-17.26,20.26s5.69,20.51,16.27,20.53c9.25,0,8.82-7.9,17.39-20.53S203.76,168.14,193.35,168.16Zm11.23,20.26c-6.1,9.81-8.45,16.15-15.13,16.13-7.33,0-14.06-6.34-8.18-16.13s8.17-15.84,15-15.85C203.56,172.55,210.59,178.6,204.58,188.42Z"/><path class="cls-5" d="M258.78,168.74H254c2.57,7.19-1.56,14.38-5.48,21.57-2.21,4.21-4.27,8.48-4.39,12.76h-.25c-1.68-4.28-1.35-8.58-.73-12.76.82-7.19,2.83-14.36-3.86-21.54h-4.5c3.44,7.18-2.14,14.35-7.24,21.52-2.84,4.23-5.48,8.49-5.51,12.74h-.25c-1.64-4.24-.8-8.48.42-12.73,1.94-7.16,5-14.33-2.21-21.48h-5.15c13.51,13.14-7.36,26.29,6.17,39.46h6c-4-7.91,3.61-15.83,8.54-23.75,1.86-3.09,3.31-6,3.72-9h.23a22.53,22.53,0,0,1,.09,9c-1.07,7.92-3.66,15.85,3.49,23.79h6.11C245,195.16,263.09,182,258.78,168.74Z"/><path class="cls-5" d="M288.2,204.16l-19.6,0c-.58-4.81.23-9.62,1.14-14.43h15.09l.18-4.28H270.55a41.67,41.67,0,0,0,.76-12.43l16.42,0c0-1.43,0-2.86-.06-4.28l-22.19,0c5.16,13.22-6.23,26.44-1.06,39.66l23.81.05Z"/></g></g></g></svg>